<svg width="310" height="127" viewBox="0 0 310 127" fill="none" xmlns="http://www.w3.org/2000/svg">
<path d="M59.0585 26.08L22.6985 124H0.0184499L37.6385 22.84C42.3185 8.97999 50.0585 0.339993 66.2585 0.339993C84.2585 0.339993 93.2584 10.96 93.2584 26.8V98.62C93.2584 102.76 95.7784 105.46 99.3785 105.46C102.618 105.46 105.138 103.48 106.218 100.42L135.738 22.84C140.418 8.97999 148.158 0.339993 164.358 0.339993C182.358 0.339993 191.358 10.96 191.358 26.8V124H169.938V27.88C169.938 23.56 167.418 20.86 163.818 20.86C160.758 20.86 158.238 23.02 157.158 26.08L127.638 103.66C122.958 117.52 115.038 126.16 98.8385 126.16C81.0185 126.16 72.0185 115.54 72.0185 99.52V27.88C72.0185 23.56 69.3185 20.86 65.7185 20.86C62.4785 20.86 60.3185 23.02 59.0585 26.08ZM203.974 2.5H280.114C302.794 2.5 309.454 15.46 309.454 27.34C309.454 35.44 306.394 43.36 299.374 53.08L247.174 124H220.534L283.174 39.22C285.334 36.34 286.234 33.82 286.234 31.3C286.234 27.52 284.254 23.74 277.594 23.74H203.974V2.5Z" fill="#DFEEEB"/>
</svg>
